# xmcd
#
# Track frame offsets: 
#        150
#        16590
#        39233
#        56820
#        72365
#        88067
#        108962
#        135157
#        154637
#        171647
#        190513
#
# Disc length: 2835 seconds
#
# Revision: 1
# Processed by: cddbd v1.5.2PL0 Copyright (c) Steve Scherf et al.
# Submitted via: ExactAudioCopy v0.99pb5
#
DISCID=830b110b
DTITLE=Monti Amundson - Prove Me Wrong
DYEAR=1900
DGENRE=Blues
TTITLE0=So Fine
TTITLE1=Prove Me Wrong
TTITLE2=Calculatin' Woman Blues
TTITLE3=Standing next To You
TTITLE4=Meg Darlin'
TTITLE5=Needs More Baby
TTITLE6=Landlady Came By
TTITLE7=Strike That match
TTITLE8=What's So Special 'bout Love
TTITLE9=Hey Now
TTITLE10=Our Day Of The Week
EXTD=
EXTT0=
EXTT1=
EXTT2=
EXTT3=
EXTT4=
EXTT5=
EXTT6=
EXTT7=
EXTT8=
EXTT9=
EXTT10=
PLAYORDER=
